<?xml version="1.0" encoding="UTF-8" standalone="no"?>
<!-- Created with Inkscape (http://www.inkscape.org/) -->

<svg
   width="768"
   height="512"
   viewBox="0 0 768 512"
   version="1.1"
   id="svg5"
   inkscape:version="1.2.2 (b0a8486541, 2022-12-01)"
   sodipodi:docname="CelestialPay_old.svg"
   inkscape:export-filename="CelestialPay.png"
   inkscape:export-xdpi="96"
   inkscape:export-ydpi="96"
   xml:space="preserve"
   xmlns:inkscape="http://www.inkscape.org/namespaces/inkscape"
   xmlns:sodipodi="http://sodipodi.sourceforge.net/DTD/sodipodi-0.dtd"
   xmlns="http://www.w3.org/2000/svg"
   xmlns:svg="http://www.w3.org/2000/svg"><sodipodi:namedview
     id="namedview7"
     pagecolor="#505050"
     bordercolor="#eeeeee"
     borderopacity="1"
     inkscape:showpageshadow="0"
     inkscape:pageopacity="0"
     inkscape:pagecheckerboard="0"
     inkscape:deskcolor="#505050"
     inkscape:document-units="px"
     showgrid="false"
     inkscape:zoom="0.86039308"
     inkscape:cx="320.78361"
     inkscape:cy="144.12017"
     inkscape:window-width="1920"
     inkscape:window-height="1024"
     inkscape:window-x="0"
     inkscape:window-y="0"
     inkscape:window-maximized="1"
     inkscape:current-layer="layer1" /><defs
     id="defs2"><clipPath
       clipPathUnits="userSpaceOnUse"
       id="clipPath3047"><rect
         style="fill:#ee90ac;fill-opacity:1;stroke-width:14;paint-order:stroke markers fill"
         id="rect3049"
         width="512"
         height="512"
         x="0"
         y="0" /></clipPath><clipPath
       clipPathUnits="userSpaceOnUse"
       id="clipPath3311"><rect
         style="fill:#ffafff;fill-opacity:1;stroke-width:24;paint-order:stroke markers fill"
         id="rect3313"
         width="768"
         height="512"
         x="583.72913"
         y="327.25757"
         ry="67.576591"
         transform="rotate(30)" /></clipPath><filter
       inkscape:collect="always"
       style="color-interpolation-filters:sRGB"
       id="filter5101"
       x="-0.40605855"
       y="-0.68287183"
       width="1.8121171"
       height="2.3657437"><feGaussianBlur
         inkscape:collect="always"
         stdDeviation="93.008436"
         id="feGaussianBlur5103" /></filter><clipPath
       clipPathUnits="userSpaceOnUse"
       id="clipPath5107"><rect
         style="fill:#b896f0;fill-opacity:1;stroke-width:24;paint-order:stroke markers fill"
         id="rect5109"
         width="768"
         height="512"
         x="0"
         y="0"
         ry="67.576591" /></clipPath></defs><g
     inkscape:label="Layer 1"
     inkscape:groupmode="layer"
     id="layer1"><rect
       style="fill:#c6c1f0;stroke-width:24;paint-order:stroke markers fill;fill-opacity:1"
       id="rect359"
       width="768"
       height="512"
       x="0"
       y="0"
       ry="67.576591" /><path
       sodipodi:type="star"
       style="fill:#1f1927;fill-opacity:1;stroke-width:24;paint-order:stroke markers fill"
       id="path3027"
       inkscape:flatsided="false"
       sodipodi:sides="4"
       sodipodi:cx="-252.61763"
       sodipodi:cy="-18.994772"
       sodipodi:r1="90.324257"
       sodipodi:r2="54.7365"
       sodipodi:arg1="1.3089969"
       sodipodi:arg2="2.0943951"
       inkscape:rounded="0.35"
       inkscape:randomized="2.0816682e-17"
       d="m -229.23999,68.25176 c -21.81203,5.844515 -31.18976,-28.552596 -50.74589,-39.843333 -19.55613,-11.290735 -54.03377,-2.21353 -59.87828,-24.0255576 -5.84452,-21.8120294 28.55259,-31.1897604 39.84333,-50.7458914 11.29074,-19.556129 2.21353,-54.033768 24.02556,-59.878278 21.81203,-5.84452 31.18976,28.552592 50.74589,39.843329 19.55613,11.290735 54.03377,2.21353 59.87828,24.025558 5.84452,21.812029 -28.55259,31.18976 -39.84333,50.7458908 -11.29074,19.5561292 -2.21353,54.0337662 -24.02556,59.8782822 z"
       transform="translate(380.26881,145.57092)" /><path
       sodipodi:type="star"
       style="fill:#1f1927;fill-opacity:1;stroke-width:24;paint-order:stroke markers fill"
       id="path3081"
       inkscape:flatsided="false"
       sodipodi:sides="5"
       sodipodi:cx="-186.90672"
       sodipodi:cy="227.32204"
       sodipodi:r1="112.4478"
       sodipodi:r2="74.890236"
       sodipodi:arg1="2.6179939"
       sodipodi:arg2="3.2463124"
       inkscape:rounded="0.35"
       inkscape:randomized="2.0816682e-17"
       d="m -284.28938,283.54593 c -11.90411,-20.61853 20.41404,-40.37425 22.90268,-64.05205 2.48864,-23.67781 -25.01584,-49.72115 -9.08502,-67.41411 15.93081,-17.69296 44.70648,6.93857 67.99444,1.98856 23.28797,-4.95001 39.5573,-39.15615 61.3072,-29.47247 21.7499,9.68368 7.21609,44.66253 19.1202,65.28106 11.90412,20.61853 49.463593,25.52131 46.974956,49.19911 -2.488638,23.67781 -40.246696,20.66439 -56.177506,38.35736 -15.93082,17.69296 -8.98712,54.92918 -32.27508,59.87919 -23.28797,4.95001 -32.08992,-31.89123 -53.83982,-41.57491 -21.7499,-9.68368 -55.01793,8.4268 -66.92205,-12.19174 z"
       inkscape:transform-center-x="-6.1011719"
       inkscape:transform-center-y="3.0642507"
       transform="translate(810.4749,141.40797)" /><g
       id="g3183"
       transform="rotate(-30,-902.53551,925.62463)"
       clip-path="url(#clipPath3311)"><rect
         style="fill:#1f1927;fill-opacity:1;stroke-width:24;paint-order:stroke markers fill"
         id="rect3135"
         width="870.33722"
         height="14.245022"
         x="129.34937"
         y="926.09802" /><path
         id="path3142"
         style="fill:#1f1927;fill-opacity:1;stroke-width:24;paint-order:stroke markers fill"
         d="m 129.34937,856.76275 24.99319,24.99319 -24.99319,24.99319 10.07351,10.07351 24.99319,-24.99319 10.07351,-10.07351 -10.07351,-10.07351 -24.99319,-24.99319 z" /><path
         id="path3144"
         style="fill:#1f1927;fill-opacity:1;stroke-width:24;paint-order:stroke markers fill"
         d="m 954.54637,856.76275 24.99319,24.99319 -24.99319,24.99319 10.07351,10.07351 24.99319,-24.99319 10.07351,-10.07351 -10.07351,-10.07351 -24.99319,-24.99319 z" /><path
         id="path3146"
         style="fill:#1f1927;fill-opacity:1;stroke-width:24;paint-order:stroke markers fill"
         d="m 891.06968,856.76275 24.99319,24.99319 -24.99319,24.99319 10.07351,10.07351 24.99319,-24.99319 10.07351,-10.07351 -10.07351,-10.07351 -24.99319,-24.99319 z" /><path
         id="path3148"
         style="fill:#1f1927;fill-opacity:1;stroke-width:24;paint-order:stroke markers fill"
         d="m 827.59299,856.76275 24.99319,24.99319 -24.99319,24.99319 10.07351,10.07351 24.99319,-24.99319 10.07351,-10.07351 -10.07351,-10.07351 -24.99319,-24.99319 z" /><path
         id="path3150"
         style="fill:#1f1927;fill-opacity:1;stroke-width:24;paint-order:stroke markers fill"
         d="m 700.6396,856.76275 24.99319,24.99319 -24.99319,24.99319 10.07351,10.07351 24.99319,-24.99319 10.07351,-10.07351 -10.07351,-10.07351 -24.99319,-24.99319 z" /><path
         id="path3152"
         style="fill:#1f1927;fill-opacity:1;stroke-width:24;paint-order:stroke markers fill"
         d="m 573.68622,856.76275 24.99319,24.99319 -24.99319,24.99319 10.07351,10.07351 24.99319,-24.99319 10.07351,-10.07351 -10.07351,-10.07351 -24.99319,-24.99319 z" /><path
         id="path3154"
         style="fill:#1f1927;fill-opacity:1;stroke-width:24;paint-order:stroke markers fill"
         d="m 510.20952,856.76275 24.99319,24.99319 -24.99319,24.99319 10.07351,10.07351 24.99319,-24.99319 10.07351,-10.07351 -10.07351,-10.07351 -24.99319,-24.99319 z" /><path
         id="path3156"
         style="fill:#1f1927;fill-opacity:1;stroke-width:24;paint-order:stroke markers fill"
         d="m 446.73283,856.76275 24.99319,24.99319 -24.99319,24.99319 10.07351,10.07351 24.99319,-24.99319 10.07351,-10.07351 -10.07351,-10.07351 -24.99319,-24.99319 z" /><path
         id="path3158"
         style="fill:#1f1927;fill-opacity:1;stroke-width:24;paint-order:stroke markers fill"
         d="m 383.25614,856.76275 24.99319,24.99319 -24.99319,24.99319 10.07351,10.07351 24.99319,-24.99319 10.07351,-10.07351 -10.07351,-10.07351 -24.99319,-24.99319 z" /><path
         id="path3160"
         style="fill:#1f1927;fill-opacity:1;stroke-width:24;paint-order:stroke markers fill"
         d="m 319.77945,856.76275 24.99319,24.99319 -24.99319,24.99319 10.07351,10.07351 24.99319,-24.99319 10.07351,-10.07351 -10.07351,-10.07351 -24.99319,-24.99319 z" /><path
         id="path3162"
         style="fill:#1f1927;fill-opacity:1;stroke-width:24;paint-order:stroke markers fill"
         d="m 256.30275,856.76275 24.99319,24.99319 -24.99319,24.99319 10.07351,10.07351 24.99319,-24.99319 10.07351,-10.07351 -10.07351,-10.07351 -24.99319,-24.99319 z" /><path
         id="path3164"
         style="fill:#1f1927;fill-opacity:1;stroke-width:24;paint-order:stroke markers fill"
         d="m 192.82606,856.76275 24.99319,24.99319 -24.99319,24.99319 10.07351,10.07351 24.99319,-24.99319 10.07351,-10.07351 -10.07351,-10.07351 -24.99319,-24.99319 z" /><path
         id="path3166"
         style="fill:#1f1927;fill-opacity:1;stroke-width:24;paint-order:stroke markers fill"
         d="m 637.16291,856.76275 24.99319,24.99319 -24.99319,24.99319 10.07351,10.07351 24.99319,-24.99319 10.07351,-10.07351 -10.07351,-10.07351 -24.99319,-24.99319 z" /><path
         id="rect3137"
         style="fill:#1f1927;fill-opacity:1;stroke-width:24;paint-order:stroke markers fill"
         d="m 764.11629,856.76275 24.99319,24.99319 -24.99319,24.99319 10.07351,10.07351 24.99319,-24.99319 10.07351,-10.07351 -10.07351,-10.07351 -24.99319,-24.99319 z" /></g><text
       xml:space="preserve"
       style="font-style:normal;font-variant:normal;font-weight:bold;font-stretch:normal;font-size:104.356px;font-family:'Product Sans';-inkscape-font-specification:'Product Sans, Bold';font-variant-ligatures:normal;font-variant-caps:normal;font-variant-numeric:normal;font-variant-east-asian:normal;text-align:center;text-anchor:middle;fill:#1f1927;fill-opacity:1;stroke-width:469.602;paint-order:stroke markers fill"
       x="99.492058"
       y="453.13614"
       id="text3308"
       transform="rotate(-30)"><tspan
         sodipodi:role="line"
         id="tspan3306"
         x="99.492058"
         y="453.13614"
         style="stroke-width:469.602">Celestial Pay</tspan></text><ellipse
       style="mix-blend-mode:normal;fill:#a771eb;fill-opacity:1;stroke-width:24;paint-order:stroke markers fill;filter:url(#filter5101)"
       id="path3367"
       cx="393.06824"
       cy="588.18622"
       rx="274.86215"
       ry="163.44228"
       clip-path="url(#clipPath5107)" /><text
       xml:space="preserve"
       style="font-style:normal;font-variant:normal;font-weight:bold;font-stretch:normal;font-size:108.025px;font-family:'Product Sans';-inkscape-font-specification:'Product Sans, Bold';font-variant-ligatures:normal;font-variant-caps:normal;font-variant-numeric:normal;font-variant-east-asian:normal;text-align:center;text-anchor:middle;fill:#1f1927;fill-opacity:1;stroke-width:486.114;paint-order:stroke markers fill"
       x="487.38791"
       y="454.91638"
       id="text10271"
       transform="rotate(-30)"><tspan
         sodipodi:role="line"
         id="tspan10269"
         x="487.38791"
         y="454.91638"
         style="fill:#1f1927;fill-opacity:1;stroke-width:486.114"></tspan></text></g></svg>
