<?xml version="1.0" encoding="UTF-8" standalone="no"?>
<!-- Created with Inkscape (http://www.inkscape.org/) -->

<svg
   width="128"
   height="128"
   viewBox="0 0 128 128"
   version="1.1"
   id="svg5"
   inkscape:version="1.2.2 (b0a8486541, 2022-12-01)"
   sodipodi:docname="CelestialPoints.svg"
   inkscape:export-filename="CelestialPoints.png"
   inkscape:export-xdpi="96"
   inkscape:export-ydpi="96"
   xmlns:inkscape="http://www.inkscape.org/namespaces/inkscape"
   xmlns:sodipodi="http://sodipodi.sourceforge.net/DTD/sodipodi-0.dtd"
   xmlns="http://www.w3.org/2000/svg"
   xmlns:svg="http://www.w3.org/2000/svg">
  <sodipodi:namedview
     id="namedview7"
     pagecolor="#505050"
     bordercolor="#eeeeee"
     borderopacity="1"
     inkscape:showpageshadow="0"
     inkscape:pageopacity="0"
     inkscape:pagecheckerboard="0"
     inkscape:deskcolor="#505050"
     inkscape:document-units="px"
     showgrid="false"
     inkscape:zoom="1.0937153"
     inkscape:cx="-272.46579"
     inkscape:cy="-70.402233"
     inkscape:window-width="1920"
     inkscape:window-height="1024"
     inkscape:window-x="0"
     inkscape:window-y="0"
     inkscape:window-maximized="1"
     inkscape:current-layer="layer1" />
  <defs
     id="defs2" />
  <g
     inkscape:label="Layer 1"
     inkscape:groupmode="layer"
     id="layer1">
    <path
       sodipodi:type="star"
       style="fill:#b7bdf8;fill-opacity:1;stroke-width:8;stroke-linecap:round;stroke-linejoin:round;paint-order:stroke markers fill"
       id="path234"
       inkscape:flatsided="false"
       sodipodi:sides="6"
       sodipodi:cx="24"
       sodipodi:cy="24"
       sodipodi:r1="22.824591"
       sodipodi:r2="15.201178"
       sodipodi:arg1="1.0471976"
       sodipodi:arg2="1.5707963"
       inkscape:rounded="0.35"
       inkscape:randomized="2.0816682e-17"
       d="M 35.412294,43.766676 C 31.686591,45.917712 28.302072,39.201178 24,39.201178 19.697928,39.201177 16.313407,45.917711 12.587704,43.766675 8.8620005,41.615639 12.98643,35.326292 10.835394,31.600589 8.6843584,27.874885 1.1754094,28.302071 1.1754093,23.999999 1.1754092,19.697928 8.684358,20.125115 10.835394,16.399412 12.98643,12.673708 8.8620019,6.3843602 12.587706,4.2333241 16.313409,2.0822883 19.697928,8.7988222 24,8.7988224 c 4.302072,2e-7 7.686593,-6.7165332 11.412296,-4.5654972 3.725703,2.1510356 -0.398726,8.4403828 1.75231,12.1660858 2.151036,3.725704 9.659985,3.298518 9.659985,7.60059 0,4.302071 -7.508949,3.874884 -9.659985,7.600587 -2.151036,3.725704 1.973392,10.015052 -1.752312,12.166088 z"
       transform="matrix(2.8039933,0,0,2.8039933,-3.2958399,-2.3029796)" />
    <path
       id="path2917"
       style="fill:#8aadf4;fill-opacity:1;stroke-width:8;stroke-linecap:round;stroke-linejoin:round;paint-order:stroke markers fill"
       d="M 32 9.5644531 C 21.553172 15.595932 33.11937 33.230907 27.087891 43.677734 C 21.056412 54.124559 0.001953125 52.929233 0.001953125 64.992188 C 0.001953125 77.055145 21.056412 75.859813 27.087891 86.306641 C 33.119367 96.753468 21.553172 114.39039 32 120.42188 C 42.446827 126.45335 51.937042 107.61719 64 107.61719 C 76.062955 107.61719 85.553175 126.45335 96 120.42188 L 95.998047 120.41797 L 96 120.41797 C 106.44683 114.38648 94.882586 96.751514 100.91406 86.304688 L 32.001953 9.5664062 L 32 9.5644531 z " />
    <path
       id="path1345"
       style="fill:#c6a0f6;fill-opacity:1;stroke-width:22.4319;stroke-linecap:round;stroke-linejoin:round;paint-order:stroke markers fill"
       d="M 32.000523,9.5647034 C 21.553685,15.596188 33.119543,33.231293 27.088058,43.678131 21.056573,54.124966 0.0010422,52.929893 0.0010422,64.99286 c 0,12.06297 21.0555308,10.867891 27.0870158,21.314729 6.031482,10.446838 -5.534373,28.081941 4.912465,34.113431 C 42.44736,126.4525 51.93703,107.61685 64,107.61685 Z" />
    <path
       sodipodi:type="star"
       style="fill:#24273a;fill-opacity:1;stroke-width:8;stroke-linecap:round;stroke-linejoin:round;paint-order:stroke markers fill"
       id="path1456"
       inkscape:flatsided="false"
       sodipodi:sides="5"
       sodipodi:cx="76.658546"
       sodipodi:cy="18.291636"
       sodipodi:r1="2.5886664"
       sodipodi:r2="1.7240518"
       sodipodi:arg1="2.6179939"
       sodipodi:arg2="3.2463124"
       inkscape:rounded="0.35"
       inkscape:randomized="2.0816682e-17"
       d="m 74.416696,19.585969 c -0.274046,-0.474661 0.469952,-0.929458 0.527243,-1.474546 0.05729,-0.545088 -0.575891,-1.144633 -0.209147,-1.551943 0.366745,-0.407311 1.029191,0.159733 1.565304,0.04578 0.536113,-0.113954 0.91065,-0.901415 1.411356,-0.678487 0.500706,0.222929 0.166122,1.028178 0.440167,1.502839 0.274045,0.47466 1.138704,0.587527 1.081413,1.132615 -0.05729,0.545088 -0.926521,0.475716 -1.293265,0.883026 -0.366744,0.407311 -0.206893,1.264528 -0.743007,1.378482 -0.536113,0.113955 -0.738743,-0.734169 -1.239449,-0.957098 -0.500705,-0.222928 -1.26657,0.193994 -1.540615,-0.280666 z"
       transform="matrix(10.457645,0,0,10.457645,-739.10552,-127.01707)" />
    <path
       sodipodi:type="star"
       style="fill:#181926;fill-opacity:1;stroke-width:8;stroke-linecap:round;stroke-linejoin:round;paint-order:stroke markers fill"
       id="path1978"
       inkscape:flatsided="false"
       sodipodi:sides="4"
       sodipodi:cx="33.099094"
       sodipodi:cy="9.196373"
       sodipodi:r1="3.0184727"
       sodipodi:r2="2.0103028"
       sodipodi:arg1="2.6541879"
       sodipodi:arg2="3.4395861"
       inkscape:rounded="0.35"
       inkscape:randomized="2.0816682e-17"
       d="m 30.432119,10.610028 c -0.350452,-0.6611575 0.52557,-1.2885693 0.745272,-2.0038853 0.219701,-0.7153159 -0.153108,-1.7262928 0.508049,-2.0767451 0.661157,-0.3504524 1.288569,0.5255702 2.003885,0.7452716 0.715316,0.2197014 1.726292,-0.153108 2.076745,0.5080491 0.350452,0.6611571 -0.52557,1.288569 -0.745272,2.003885 -0.219701,0.7153157 0.153108,1.7262927 -0.508049,2.0767447 -0.661157,0.350453 -1.288569,-0.52557 -2.003885,-0.745271 -0.715316,-0.219702 -1.726293,0.153108 -2.076745,-0.508049 z"
       transform="matrix(2.8039933,0,0,2.8039933,-3.2958399,-2.3029796)" />
    <path
       sodipodi:type="star"
       style="fill:#24273a;fill-opacity:1;stroke-width:8;stroke-linecap:round;stroke-linejoin:round;paint-order:stroke markers fill"
       id="path1980"
       inkscape:flatsided="false"
       sodipodi:sides="4"
       sodipodi:cx="7.1771913"
       sodipodi:cy="22.429291"
       sodipodi:r1="1.8392448"
       sodipodi:r2="1.2249371"
       sodipodi:arg1="1.3231139"
       sodipodi:arg2="2.1085121"
       inkscape:rounded="0.35"
       inkscape:randomized="2.0816682e-17"
       d="M 7.6280964,24.212408 C 7.1860524,24.324189 6.9414225,23.714896 6.5498086,23.481366 6.1581946,23.247835 5.505856,23.32224 5.3940743,22.880196 c -0.1117817,-0.442044 0.4975113,-0.686674 0.731042,-1.078288 0.2335306,-0.391614 0.1591258,-1.043952 0.6011698,-1.155734 0.442044,-0.111782 0.6866739,0.497511 1.0782879,0.731042 0.3916139,0.23353 1.0439525,0.159126 1.1557342,0.60117 C 9.07209,22.42043 8.4627969,22.66506 8.2292663,23.056673 7.9957356,23.448287 8.0701404,24.100626 7.6280964,24.212408 Z"
       transform="matrix(2.8039933,0,0,2.8039933,-3.2958399,-2.3029796)" />
    <path
       sodipodi:type="star"
       style="fill:#181926;fill-opacity:1;stroke-width:8;stroke-linecap:round;stroke-linejoin:round;paint-order:stroke markers fill"
       id="path1982"
       inkscape:flatsided="false"
       sodipodi:sides="4"
       sodipodi:cx="18.864798"
       sodipodi:cy="33.729206"
       sodipodi:r1="2.533823"
       sodipodi:r2="1.6875262"
       sodipodi:arg1="2.9988707"
       sodipodi:arg2="3.7842688"
       inkscape:rounded="0.35"
       inkscape:randomized="2.0816682e-17"
       d="m 16.356737,34.089612 c -0.08935,-0.621761 0.780731,-0.868979 1.157205,-1.371808 0.376474,-0.502829 0.368689,-1.407312 0.99045,-1.496658 0.621761,-0.08935 0.868978,0.78073 1.371807,1.157204 0.502829,0.376474 1.407312,0.368689 1.496659,0.99045 0.08935,0.621762 -0.780731,0.868979 -1.157205,1.371808 -0.376474,0.502829 -0.368688,1.407312 -0.99045,1.496658 -0.621761,0.08935 -0.868978,-0.78073 -1.371807,-1.157204 -0.502829,-0.376474 -1.407312,-0.368689 -1.496659,-0.99045 z"
       transform="matrix(2.8039933,0,0,2.8039933,-3.2958399,-2.3029796)" />
    <path
       sodipodi:type="star"
       style="fill:#24273a;fill-opacity:1;stroke-width:8;stroke-linecap:round;stroke-linejoin:round;paint-order:stroke markers fill"
       id="path1984"
       inkscape:flatsided="false"
       sodipodi:sides="4"
       sodipodi:cx="12.587891"
       sodipodi:cy="40.448441"
       sodipodi:r1="1.0400999"
       sodipodi:r2="0.69270658"
       sodipodi:arg1="0.42475366"
       sodipodi:arg2="1.2101518"
       inkscape:rounded="0.35"
       inkscape:randomized="2.0816682e-17"
       d="m 13.535567,40.877062 c -0.106257,0.234934 -0.461977,0.128535 -0.703236,0.219523 -0.241259,0.09099 -0.438128,0.40579 -0.673062,0.299532 -0.234934,-0.106257 -0.128535,-0.461977 -0.219523,-0.703236 -0.09099,-0.241259 -0.40579,-0.438128 -0.299532,-0.673062 0.106257,-0.234934 0.461977,-0.128535 0.703236,-0.219523 0.241259,-0.09099 0.438128,-0.40579 0.673062,-0.299532 0.234934,0.106257 0.128535,0.461977 0.219523,0.703236 0.09099,0.241259 0.40579,0.438128 0.299532,0.673062 z"
       transform="matrix(2.8039933,0,0,2.8039933,-3.2958399,-2.3029796)" />
    <path
       sodipodi:type="star"
       style="fill:#24273a;fill-opacity:1;stroke-width:8;stroke-linecap:round;stroke-linejoin:round;paint-order:stroke markers fill"
       id="path1986"
       inkscape:flatsided="false"
       sodipodi:sides="4"
       sodipodi:cx="37.809864"
       sodipodi:cy="28.2092"
       sodipodi:r1="3.8189838"
       sodipodi:r2="2.5434434"
       sodipodi:arg1="2.8287481"
       sodipodi:arg2="3.6141462"
       inkscape:rounded="0.35"
       inkscape:randomized="2.0816682e-17"
       d="m 34.176246,29.384555 c -0.291376,-0.900793 0.937991,-1.490042 1.368913,-2.333033 0.430923,-0.842991 0.188557,-2.184563 1.08935,-2.47594 0.900793,-0.291377 1.490041,0.937991 2.333032,1.368913 0.842992,0.430923 2.184564,0.188557 2.475941,1.08935 0.291376,0.900793 -0.937991,1.490041 -1.368913,2.333032 -0.430923,0.842991 -0.188557,2.184564 -1.08935,2.475941 -0.900793,0.291376 -1.490041,-0.937991 -2.333032,-1.368913 -0.842992,-0.430923 -2.184564,-0.188558 -2.475941,-1.08935 z"
       transform="matrix(2.8039933,0,0,2.8039933,-3.2958399,-2.3029796)" />
    <path
       sodipodi:type="star"
       style="fill:#24273a;fill-opacity:1;stroke-width:8;stroke-linecap:round;stroke-linejoin:round;paint-order:stroke markers fill"
       id="path1988"
       inkscape:flatsided="false"
       sodipodi:sides="4"
       sodipodi:cx="15.449243"
       sodipodi:cy="6.4476309"
       sodipodi:r1="3.7709022"
       sodipodi:r2="2.5114212"
       sodipodi:arg1="1.7167303"
       sodipodi:arg2="2.5021284"
       inkscape:rounded="0.35"
       inkscape:randomized="2.0816682e-17"
       d="M 14.900891,10.17845 C 13.976002,10.042511 13.991911,8.6964799 13.434039,7.9463608 12.876167,7.1962415 11.582484,6.824169 11.718423,5.8992793 c 0.135939,-0.9248895 1.481971,-0.9089798 2.23209,-1.4668519 0.750119,-0.5578722 1.122191,-1.8515551 2.047081,-1.715616 0.92489,0.1359392 0.90898,1.4819704 1.466852,2.2320896 0.557872,0.7501193 1.851555,1.1221918 1.715616,2.0470814 -0.135939,0.9248896 -1.48197,0.9089799 -2.23209,1.466852 -0.750119,0.5578722 -1.122191,1.8515546 -2.047081,1.7156156 z"
       transform="matrix(2.8039933,0,0,2.8039933,-3.2958399,-2.3029796)" />
    <path
       sodipodi:type="star"
       style="fill:#24273a;fill-opacity:1;stroke-width:8;stroke-linecap:round;stroke-linejoin:round;paint-order:stroke markers fill"
       id="path1990"
       inkscape:flatsided="false"
       sodipodi:sides="4"
       sodipodi:cx="30.350351"
       sodipodi:cy="37.280796"
       sodipodi:r1="2.9786623"
       sodipodi:r2="1.9837893"
       sodipodi:arg1="0.39548294"
       sodipodi:arg2="1.1808811"
       inkscape:rounded="0.35"
       inkscape:randomized="2.0816682e-17"
       d="m 33.099092,38.428337 c -0.284481,0.681428 -1.311682,0.406665 -1.994682,0.687348 -0.683001,0.280683 -1.220173,1.198334 -1.9016,0.913852 -0.681427,-0.284481 -0.406664,-1.311682 -0.687347,-1.994683 -0.280683,-0.683 -1.198334,-1.220172 -0.913853,-1.901599 0.284482,-0.681427 1.311683,-0.406665 1.994683,-0.687348 0.683001,-0.280683 1.220172,-1.198334 1.9016,-0.913852 0.681427,0.284481 0.406664,1.311682 0.687347,1.994683 0.280683,0.683 1.198334,1.220172 0.913852,1.901599 z"
       transform="matrix(2.8039933,0,0,2.8039933,-3.2958399,-2.3029796)" />
    <path
       id="path2055"
       style="fill:#1e2030;fill-opacity:1;stroke-width:22.4319;stroke-linecap:round;stroke-linejoin:round;paint-order:stroke markers fill"
       d="M 73.573007,39.537858 68.189561,90.749073 C 73.79604,89.557378 72.125507,80.594299 75.960784,76.334795 79.796061,72.07529 88.888733,72.801662 89.487862,67.101331 90.086991,61.401001 81.044651,60.219378 78.178788,55.255556 75.312921,50.291731 78.809204,41.869163 73.573007,39.537858 Z" />
    <path
       id="path2501"
       style="fill:#181926;fill-opacity:1;stroke-width:22.4319;stroke-linecap:round;stroke-linejoin:round;paint-order:stroke markers fill"
       d="M 78.178788,55.255556 68.189561,90.749073 C 73.79604,89.557378 72.125507,80.594299 75.960784,76.334795 79.796061,72.07529 88.888733,72.801662 89.487862,67.101331 90.086991,61.401001 81.044651,60.219378 78.178788,55.255556 Z" />
  </g>
</svg>
